<mxfile host="app.diagrams.net" modified="2024-02-11T14:34:52.534Z" agent="Mozilla/5.0 (Macintosh; Intel Mac OS X 10_15_7) AppleWebKit/605.1.15 (KHTML, like Gecko) Version/17.2.1 Safari/605.1.15" version="23.1.2" etag="hnmXJ27qwIBua24mEpAn" type="github">
  <diagram name="PÃ¡gina-1" id="hvgqFuqVIF4gcX-cCih1">
    <mxGraphModel>
      <root>
        <mxCell id="0" />
        <mxCell id="1" parent="0" />
      </root>
    </mxGraphModel>
  </diagram>
</mxfile>
